<?xml version="1.0" standalone="no"?>
<!DOCTYPE svg PUBLIC "-//W3C//DTD SVG 20010904//EN"
 "http://www.w3.org/TR/2001/REC-SVG-20010904/DTD/svg10.dtd">
<svg version="1.0" xmlns="http://www.w3.org/2000/svg"
 width="500.000000pt" height="500.000000pt" viewBox="0 0 500.000000 500.000000"
 preserveAspectRatio="xMidYMid meet">
<metadata>
Created by potrace 1.14, written by Peter Selinger 2001-2017
</metadata>
<g transform="translate(0.000000,500.000000) scale(0.100000,-0.100000)"
fill="#000000" stroke="none">
<path d="M2180 4990 c-25 -4 -63 -10 -85 -14 -390 -58 -804 -240 -1145 -505
-88 -68 -316 -290 -385 -375 -271 -332 -443 -699 -531 -1131 -28 -137 -29
-146 -29 -460 1 -347 2 -359 50 -575 77 -345 247 -702 474 -990 93 -118 308
-334 421 -422 315 -244 654 -401 1060 -490 100 -22 125 -23 495 -23 367 0 396
1 494 22 507 110 922 334 1277 688 203 202 340 388 463 627 89 171 194 454
214 574 5 28 17 84 33 149 4 17 9 192 11 390 4 335 3 369 -17 484 -124 708
-562 1340 -1190 1718 -84 51 -238 129 -302 153 -18 7 -49 19 -68 27 -87 35
-184 66 -290 93 -111 28 -141 34 -205 45 -16 3 -46 8 -65 12 -53 9 -628 12
-680 3z"/>
</g>
</svg>
